<svg fill="oklch(48.8% 0.243 264.376)" viewBox="0 0 24 24" xmlns="http://www.w3.org/2000/svg">
  <path
    d="M17.1778 9C26.1778 9.5 18.6259 24.0221 10.6778 23C2.72978 21.9779 6.41879 17.9327 10.6778 15.5C8.59612 20.5141 6.84516 21.0242 12.1778 20.5C17.5105 19.9758 19.1778 15 19.1778 13C19.1778 11 16.6778 10.5 14.1778 9.5C15.0399 9.13185 15.7332 9.04259 17.1778 9Z"
    stroke="current-color"
  />
  <path
    d="M5.5 2.27393C3 6.27393 2.00892 8.62579 1 12.7739C7.5 6.77394 13.5 6.27393 21 7.27393C18.9145 5.4177 12 2.77394 5.5 6.77394C5.38117 4.79374 8 -1.72608 5.5 2.27393Z"
    stroke="current-color"
  />
</svg>